<svg xmlns="http://www.w3.org/2000/svg" xmlns:xlink="http://www.w3.org/1999/xlink" xmlns:fi="http://pattern.flaticon.com/" x="0" y="0" width="1080" height="550" viewBox="0 0 2520 1283.3333333333335"><rect x="0px" y="0px" width="100%" height="100%" opacity="1" fill="#e5e5e5"/><defs><g transform="matrix(0.12498519569635391 0 0 0.12498519569635391 235 35)" id="L1_0"><path d="m246.210938 33.15625c4.144531-10.03125 1.035156-21.597656-7.578126-28.203125-8.617187-6.605469-20.59375-6.605469-29.207031 0s-11.722656 18.171875-7.582031 28.203125c-118.808594 11.828125-207.460938 114.757812-201.539062 234.007812 5.917968 119.246094 104.328124 212.894532 223.722656 212.894532 119.394531 0 217.804687-93.648438 223.726562-212.894532 5.917969-119.25-82.734375-222.179687-201.542968-234.007812zm-30.183594-9.101562c0-4.417969 3.582031-8 8-8 4.417968 0 8 3.582031 8 8 0 4.417968-3.582032 8-8 8-4.417969 0-8-3.582032-8-8zm8 440c-114.875 0-208-93.125-208-208s93.125-208 208-208 208 93.125 208 208c-.132813 114.820312-93.179688 207.867187-208 208zm0 0"/><path d="m224.027344 64.054688c-106.039063 0-192 85.960937-192 192 0 106.039062 85.960937 192 192 192 106.039062 0 192-85.960938 192-192-.121094-105.988282-86.011719-191.878907-192-192zm0 368c-97.199219 0-176-78.796876-176-176 0-97.203126 78.800781-176 176-176 97.203125 0 176 78.796874 176 176-.109375 97.15625-78.84375 175.890624-176 176zm0 0"/><path d="m216.027344 96.054688h16v16h-16zm0 0"/><path d="m105.234375 148.574219 11.316406-11.3125 11.3125 11.3125-11.3125 11.316406zm0 0"/><path d="m64.027344 248.054688h16v16h-16zm0 0"/><path d="m105.234375 363.535156 11.3125-11.3125 11.316406 11.3125-11.316406 11.3125zm0 0"/><path d="m216.027344 400.054688h16v16h-16zm0 0"/><path d="m320.195312 363.535156 11.3125-11.3125 11.3125 11.3125-11.3125 11.3125zm0 0"/><path d="m368.027344 248.054688h16v16h-16zm0 0"/><path d="m320.195312 148.574219 11.3125-11.3125 11.316407 11.3125-11.316407 11.316406zm0 0"/><path d="m232.027344 230.109375v-94.054687h-16v94.054687l-17.941406 17.945313h-78.058594v16h78.058594l20.285156 20.289062c3.125 3.121094 8.1875 3.121094 11.3125 0l22.632812-22.632812c3.125-3.125 3.125-8.1875 0-11.3125zm-8 37.265625-11.320313-11.320312 11.320313-11.320313 11.320312 11.320313zm0 0"/></g><g transform="matrix(0.125 0 0 0.125 64 155)" id="L1_1"><path d="m464 24h-64v-16c0-4.417969-3.582031-8-8-8h-32c-4.417969 0-8 3.582031-8 8v16h-176v-16c0-4.417969-3.582031-8-8-8h-32c-4.417969 0-8 3.582031-8 8v16h-16v-16c0-4.417969-3.582031-8-8-8h-32c-4.417969 0-8 3.582031-8 8v16h-48c-8.835938 0-16 7.164062-16 16v160c0 8.835938 7.164062 16 16 16h10.238281l6.175781 18.527344c1.089844 3.265625 4.144532 5.46875 7.585938 5.472656h400c3.441406-.003906 6.496094-2.207031 7.585938-5.472656l6.175781-18.527344h10.238281c8.835938 0 16-7.164062 16-16v-160c0-8.835938-7.164062-16-16-16zm-96-8h16v8h-16zm-224 0h16v8h-16zm-64 0h16v8h-16zm354.230469 208h-388.460938l-2.671875-8h393.804688zm-418.230469-24v-160h448v160zm0 0"/><path d="m448 48h-416c-4.417969 0-8 3.582031-8 8v128c0 4.417969 3.582031 8 8 8h416c4.417969 0 8-3.582031 8-8v-128c0-4.417969-3.582031-8-8-8zm-8 128h-400v-112h400zm0 0"/><path d="m176 160h40v-16h-32v-16h24c4.417969 0 8-3.582031 8-8v-32c0-4.417969-3.582031-8-8-8h-32c-4.417969 0-8 3.582031-8 8v16h16v-8h16v16h-24c-4.417969 0-8 3.582031-8 8v32c0 4.417969 3.582031 8 8 8zm0 0"/><path d="m232 88h16v16h-16zm0 0"/><path d="m232 136h16v16h-16zm0 0"/><path d="m136 160h16v-72c0-4.417969-3.582031-8-8-8h-16v16h8zm0 0"/><path d="m272 160h32c4.417969 0 8-3.582031 8-8v-64c0-4.417969-3.582031-8-8-8h-32c-4.417969 0-8 3.582031-8 8v64c0 4.417969 3.582031 8 8 8zm8-64h16v48h-16zm0 0"/><path d="m336 160h32c4.417969 0 8-3.582031 8-8v-64c0-4.417969-3.582031-8-8-8h-32c-4.417969 0-8 3.582031-8 8v64c0 4.417969 3.582031 8 8 8zm8-64h16v48h-16zm0 0"/></g><g transform="matrix(0.12469690293073654 0 0 0.12469690293073654 228.99999998441285 198.9999999968826)" id="L1_2"><path d="m215.804688 360.195312c-1.144532-4.269531-5.53125-6.800781-9.800782-5.65625l-7.726562 2.074219-14.402344-53.707031c-.367188-1.351562-1.078125-2.585938-2.0625-3.582031l-78.074219-78.066407c-7.097656-7.050781-17.074219-10.398437-26.992187-9.054687l-13.742188-51.253906c-2.851562-11.164063-11.484375-19.929688-22.601562-22.957031-11.117188-3.023438-23 .160156-31.117188 8.335937-8.113281 8.175781-11.207031 20.085937-8.097656 31.179687l45.535156 170.007813c.476563 1.753906 1.527344 3.292969 2.984375 4.375l39.007813 28.6875 1.34375 5.015625-7.726563 2.074219c-4.265625 1.144531-6.796875 5.527343-5.65625 9.792969l16.566407 61.824218c1.144531 4.261719 5.527343 6.792969 9.792968 5.652344l123.640625-33.125c4.269531-1.144531 6.800781-5.53125 5.65625-9.800781zm-154.351563-19.535156-44.847656-167.289062c-2.289063-8.535156 2.773437-17.3125 11.308593-19.601563 8.539063-2.285156 17.3125 2.777344 19.601563 11.3125l14.320313 53.402344c-1.195313.863281-2.328126 1.800781-3.398438 2.816406-12.453125 12.519531-12.453125 32.742188 0 45.261719l64.664062 64.664062 11.316407-11.3125-64.664063-64.664062c-6.214844-6.234375-6.242187-16.3125-.0625-22.582031 1.308594-1.324219 2.855469-2.390625 4.558594-3.144531.253906-.105469.5-.226563.738281-.359376.621094-.304687 1.277344-.535156 1.953125-.6875 5.523438-1.46875 11.414063.109376 15.460938 4.144532l76.546875 76.527344 13.839843 51.640624-77.28125 20.703126-2.070312-7.722657c-.464844-1.753906-1.519531-3.300781-2.984375-4.375zm45.167969 106.757813-12.425782-46.398438 108.191407-28.9375 12.417969 46.402344zm0 0"/><path d="m476.851562 153.21875c-6.46875-11.214844-19.0625-17.425781-31.898437-15.734375s-23.390625 10.953125-26.734375 23.464844l-13.734375 51.253906c-9.914063-1.351563-19.894531 1.996094-26.992187 9.046875l-78.074219 78.074219c-.984375.996093-1.695313 2.230469-2.0625 3.582031l-14.398438 53.707031-7.730469-2.074219c-4.265624-1.144531-8.65625 1.386719-9.796874 5.65625l-16.5625 61.816407c-1.144532 4.269531 1.386718 8.65625 5.65625 9.800781l123.679687 33.125c.675781.183594 1.371094.277344 2.074219.28125 3.617187-.003906 6.785156-2.4375 7.71875-5.933594l16.566406-61.824218c1.140625-4.265626-1.390625-8.648438-5.65625-9.792969l-7.726562-2.074219 1.34375-5.015625 39.007812-28.6875c1.460938-1.082031 2.511719-2.621094 2.984375-4.375l45.550781-170.007813c2.214844-8.199218 1.054688-16.945312-3.214844-24.289062zm-102.265624 294.199219-108.183594-28.992188 12.417968-46.398437 108.183594 29.023437zm90.019531-274.046875-44.800781 167.289062-39 28.695313c-1.46875 1.074219-2.519532 2.617187-2.984376 4.375l-2.074218 7.722656-77.277344-20.707031 13.839844-51.640625 76.542968-76.535157c4.046876-4.046874 9.945313-5.621093 15.472657-4.136718.671875.15625 1.324219.386718 1.945312.691406.238281.132812.484375.25.734375.359375 1.671875.734375 3.191406 1.777344 4.480469 3.070313 6.230469 6.265624 6.230469 16.390624 0 22.65625l-64.671875 64.664062 11.3125 11.3125 64.671875-64.664062c12.464844-12.554688 12.429687-32.824219-.074219-45.335938-1.046875-.984375-2.160156-1.902344-3.328125-2.742188l14.296875-53.363281c2.289063-8.535156 11.0625-13.597656 19.601563-11.3125 8.535156 2.289063 13.597656 11.066407 11.3125 19.601563zm0 0"/><path d="m360.605469 120.082031c0-66.273437-53.726563-119.9999998-120-119.9999998-66.277344 0-120 53.7265628-120 119.9999998 0 66.277344 53.722656 120 120 120 66.242187-.074219 119.921875-53.753906 120-120zm-120 104c-57.4375 0-104-46.5625-104-104s46.5625-104 104-104 104 46.5625 104 104c-.066407 57.410157-46.589844 103.933594-104 104zm0 0"/><path d="m248.605469 97.554688v-41.472657h-16v41.472657c-6.777344 2.421874-12.109375 7.753906-14.53125 14.527343h-25.46875v16h25.46875c3.703125 10.535157 14.191406 17.109375 25.28125 15.855469 11.09375-1.253906 19.847656-10.007812 21.101562-21.101562 1.253907-11.09375-5.320312-21.578126-15.851562-25.28125zm-8 30.527343c-4.417969 0-8-3.582031-8-8s3.582031-8 8-8 8 3.582031 8 8-3.582031 8-8 8zm0 0"/><path d="m144.605469 112.082031h16v16h-16zm0 0"/><path d="m232.605469 200.082031h16v16h-16zm0 0"/><path d="m320.605469 112.082031h16v16h-16zm0 0"/><path d="m232.605469 24.082031h16v16h-16zm0 0"/></g><g transform="matrix(0.12469690293073654 0 0 0.12469690293073654 65.99999995323856 300.9999999906478)" id="L1_3"><path d="m215.804688 360.195312c-1.144532-4.269531-5.53125-6.800781-9.800782-5.65625l-7.726562 2.074219-14.402344-53.707031c-.367188-1.351562-1.078125-2.585938-2.0625-3.582031l-78.074219-78.066407c-7.097656-7.050781-17.074219-10.398437-26.992187-9.054687l-13.742188-51.253906c-2.851562-11.164063-11.484375-19.929688-22.601562-22.957031-11.117188-3.023438-23 .160156-31.117188 8.335937-8.113281 8.175781-11.207031 20.085937-8.097656 31.179687l45.535156 170.007813c.476563 1.753906 1.527344 3.292969 2.984375 4.375l39.007813 28.6875 1.34375 5.015625-7.726563 2.074219c-4.265625 1.144531-6.796875 5.527343-5.65625 9.792969l16.566407 61.824218c1.144531 4.261719 5.527343 6.792969 9.792968 5.652344l123.640625-33.125c4.269531-1.144531 6.800781-5.53125 5.65625-9.800781zm-154.351563-19.535156-44.847656-167.289062c-2.289063-8.535156 2.773437-17.3125 11.308593-19.601563 8.539063-2.285156 17.3125 2.777344 19.601563 11.3125l14.320313 53.402344c-1.195313.863281-2.328126 1.800781-3.398438 2.816406-12.453125 12.519531-12.453125 32.742188 0 45.261719l64.664062 64.664062 11.316407-11.3125-64.664063-64.664062c-6.214844-6.234375-6.242187-16.3125-.0625-22.582031 1.308594-1.324219 2.855469-2.390625 4.558594-3.144531.253906-.105469.5-.226563.738281-.359376.621094-.304687 1.277344-.535156 1.953125-.6875 5.523438-1.46875 11.414063.109376 15.460938 4.144532l76.546875 76.527344 13.839843 51.640624-77.28125 20.703126-2.070312-7.722657c-.464844-1.753906-1.519531-3.300781-2.984375-4.375zm45.167969 106.757813-12.425782-46.398438 108.191407-28.9375 12.417969 46.402344zm0 0"/><path d="m476.851562 153.21875c-6.46875-11.214844-19.0625-17.425781-31.898437-15.734375s-23.390625 10.953125-26.734375 23.464844l-13.734375 51.253906c-9.914063-1.351563-19.894531 1.996094-26.992187 9.046875l-78.074219 78.074219c-.984375.996093-1.695313 2.230469-2.0625 3.582031l-14.398438 53.707031-7.730469-2.074219c-4.265624-1.144531-8.65625 1.386719-9.796874 5.65625l-16.5625 61.816407c-1.144532 4.269531 1.386718 8.65625 5.65625 9.800781l123.679687 33.125c.675781.183594 1.371094.277344 2.074219.28125 3.617187-.003906 6.785156-2.4375 7.71875-5.933594l16.566406-61.824218c1.140625-4.265626-1.390625-8.648438-5.65625-9.792969l-7.726562-2.074219 1.34375-5.015625 39.007812-28.6875c1.460938-1.082031 2.511719-2.621094 2.984375-4.375l45.550781-170.007813c2.214844-8.199218 1.054688-16.945312-3.214844-24.289062zm-102.265624 294.199219-108.183594-28.992188 12.417968-46.398437 108.183594 29.023437zm90.019531-274.046875-44.800781 167.289062-39 28.695313c-1.46875 1.074219-2.519532 2.617187-2.984376 4.375l-2.074218 7.722656-77.277344-20.707031 13.839844-51.640625 76.542968-76.535157c4.046876-4.046874 9.945313-5.621093 15.472657-4.136718.671875.15625 1.324219.386718 1.945312.691406.238281.132812.484375.25.734375.359375 1.671875.734375 3.191406 1.777344 4.480469 3.070313 6.230469 6.265624 6.230469 16.390624 0 22.65625l-64.671875 64.664062 11.3125 11.3125 64.671875-64.664062c12.464844-12.554688 12.429687-32.824219-.074219-45.335938-1.046875-.984375-2.160156-1.902344-3.328125-2.742188l14.296875-53.363281c2.289063-8.535156 11.0625-13.597656 19.601563-11.3125 8.535156 2.289063 13.597656 11.066407 11.3125 19.601563zm0 0"/><path d="m360.605469 120.082031c0-66.273437-53.726563-119.9999998-120-119.9999998-66.277344 0-120 53.7265628-120 119.9999998 0 66.277344 53.722656 120 120 120 66.242187-.074219 119.921875-53.753906 120-120zm-120 104c-57.4375 0-104-46.5625-104-104s46.5625-104 104-104 104 46.5625 104 104c-.066407 57.410157-46.589844 103.933594-104 104zm0 0"/><path d="m248.605469 97.554688v-41.472657h-16v41.472657c-6.777344 2.421874-12.109375 7.753906-14.53125 14.527343h-25.46875v16h25.46875c3.703125 10.535157 14.191406 17.109375 25.28125 15.855469 11.09375-1.253906 19.847656-10.007812 21.101562-21.101562 1.253907-11.09375-5.320312-21.578126-15.851562-25.28125zm-8 30.527343c-4.417969 0-8-3.582031-8-8s3.582031-8 8-8 8 3.582031 8 8-3.582031 8-8 8zm0 0"/><path d="m144.605469 112.082031h16v16h-16zm0 0"/><path d="m232.605469 200.082031h16v16h-16zm0 0"/><path d="m320.605469 112.082031h16v16h-16zm0 0"/><path d="m232.605469 24.082031h16v16h-16zm0 0"/></g></defs><g fi:class="KUsePattern" opacity="0.3"><pattern id="pattern_L1_0" width="350" height="350" patternUnits="userSpaceOnUse"><use xlink:href="#L1_0" x="-350" y="-350"/><use xlink:href="#L1_0" x="0" y="-350"/><use xlink:href="#L1_0" x="350" y="-350"/><use xlink:href="#L1_0" x="-350" y="0"/><use xlink:href="#L1_0" x="0" y="0"/><use xlink:href="#L1_0" x="350" y="0"/><use xlink:href="#L1_0" x="-350" y="350"/><use xlink:href="#L1_0" x="0" y="350"/><use xlink:href="#L1_0" x="350" y="350"/></pattern><rect x="0" y="0" width="100%" height="100%" fill="url(#pattern_L1_0)"/></g><g fi:class="KUsePattern" opacity="0.3"><pattern id="pattern_L1_1" width="350" height="350" patternUnits="userSpaceOnUse"><use xlink:href="#L1_1" x="-350" y="-350"/><use xlink:href="#L1_1" x="0" y="-350"/><use xlink:href="#L1_1" x="350" y="-350"/><use xlink:href="#L1_1" x="-350" y="0"/><use xlink:href="#L1_1" x="0" y="0"/><use xlink:href="#L1_1" x="350" y="0"/><use xlink:href="#L1_1" x="-350" y="350"/><use xlink:href="#L1_1" x="0" y="350"/><use xlink:href="#L1_1" x="350" y="350"/></pattern><rect x="0" y="0" width="100%" height="100%" fill="url(#pattern_L1_1)"/></g><g fi:class="KUsePattern" opacity="0.3"><pattern id="pattern_L1_2" width="350" height="350" patternUnits="userSpaceOnUse"><use xlink:href="#L1_2" x="-350" y="-350"/><use xlink:href="#L1_2" x="0" y="-350"/><use xlink:href="#L1_2" x="350" y="-350"/><use xlink:href="#L1_2" x="-350" y="0"/><use xlink:href="#L1_2" x="0" y="0"/><use xlink:href="#L1_2" x="350" y="0"/><use xlink:href="#L1_2" x="-350" y="350"/><use xlink:href="#L1_2" x="0" y="350"/><use xlink:href="#L1_2" x="350" y="350"/></pattern><rect x="0" y="0" width="100%" height="100%" fill="url(#pattern_L1_2)"/></g><g fi:class="KUsePattern" opacity="0.3"><pattern id="pattern_L1_3" width="350" height="350" patternUnits="userSpaceOnUse"><use xlink:href="#L1_3" x="-350" y="-350"/><use xlink:href="#L1_3" x="0" y="-350"/><use xlink:href="#L1_3" x="350" y="-350"/><use xlink:href="#L1_3" x="-350" y="0"/><use xlink:href="#L1_3" x="0" y="0"/><use xlink:href="#L1_3" x="350" y="0"/><use xlink:href="#L1_3" x="-350" y="350"/><use xlink:href="#L1_3" x="0" y="350"/><use xlink:href="#L1_3" x="350" y="350"/></pattern><rect x="0" y="0" width="100%" height="100%" fill="url(#pattern_L1_3)"/></g></svg>